<svg width="227" height="197" viewBox="0 0 227 197" fill="none" xmlns="http://www.w3.org/2000/svg">
<path d="M19.8636 89H217.136C219.752 89 222.261 90.0009 224.111 91.7825C225.961 93.5641 227 95.9804 227 98.5C227 101.02 225.961 103.436 224.111 105.218C222.261 106.999 219.752 108 217.136 108H19.8636C17.2476 108 14.7388 106.999 12.889 105.218C11.0392 103.436 10 101.02 10 98.5C10 95.9804 11.0392 93.5641 12.889 91.7825C14.7388 90.0009 17.2476 89 19.8636 89Z" fill="black"/>
<path d="M23.7121 98.5L105.121 180.166C106.965 182.015 108 184.523 108 187.139C108 189.754 106.965 192.262 105.121 194.112C103.278 195.961 100.779 197 98.1721 197C95.5656 197 93.0659 195.961 91.2228 194.112L2.88366 105.473C1.96958 104.558 1.24436 103.471 0.749534 102.275C0.254708 101.078 0 99.7955 0 98.5C0 97.2046 0.254708 95.9218 0.749534 94.7253C1.24436 93.5288 1.96958 92.4419 2.88366 91.5271L91.2228 2.88828C93.0659 1.03894 95.5656 0 98.1721 0C100.779 0 103.278 1.03894 105.121 2.88828C106.965 4.73761 108 7.24584 108 9.8612C108 12.4765 106.965 14.9848 105.121 16.8341L23.7121 98.5Z" fill="black"/>
</svg>
