<svg xmlns="http://www.w3.org/2000/svg" fill="none" viewBox="0 0 24 24" id="Usb-Type-A--Streamline-Nova.svg" height="24" width="24"><desc>Usb Type A Streamline Icon: https://streamlinehq.com</desc><path fill="#000000" fill-rule="evenodd" d="M4 1c0 -0.552285 0.44772 -1 1 -1h14c0.5523 0 1 0.447715 1 1v11h1c0.5523 0 1 0.4477 1 1v5c0 0.3344 -0.1671 0.6466 -0.4453 0.8321L19 20.5352V23c0 0.5523 -0.4477 1 -1 1H6c-0.55228 0 -1 -0.4477 -1 -1v-2.4648l-2.5547 -1.7031C2.1671 18.6466 2 18.3344 2 18v-5c0 -0.5523 0.44772 -1 1 -1h1V1Zm2 11h12V2H6v10Zm2 -4V4h2v4H8Zm6 -4v4h2V4h-2Z" clip-rule="evenodd" stroke-width="1"></path></svg>