<svg xmlns="http://www.w3.org/2000/svg" fill="none" viewBox="0 0 24 24" id="Rings-Couple--Streamline-Ultimate.svg" height="24" width="24"><desc>Rings Couple Streamline Icon: https://streamlinehq.com</desc><path fill="#000000" fill-rule="evenodd" d="m9.77824 4.8119 2.42306 -2.42301L11.0068 0H6.22904L5.03459 2.38889 7.4576 4.8119c-3.56959 0.55738 -6.30079 3.64545 -6.30079 7.3714 0 3.5927 2.53934 6.5924 5.92112 7.302 -0.32481 -0.892 -0.50658 -1.8356 -0.53243 -2.7931 -1.70504 -0.785 -2.88869 -2.5087 -2.88869 -4.5089 0 -2.73992 2.22117 -4.96109 4.96112 -4.96109 1.2131 0 2.32447 0.43541 3.18647 1.15846 0.8696 -0.38429 1.7986 -0.62801 2.7495 -0.71825C13.413 6.1667 11.7196 5.11503 9.77824 4.8119Zm2.70026 13.7574c1.9559 -1.185 3.3238 -3.2431 3.5631 -5.6338 -0.9202 -0.1731 -1.8633 0.0255 -2.629 0.5269 -0.2636 0.9907 -0.8261 1.8595 -1.585 2.504 -0.1288 0.9238 0.1112 1.8586 0.6509 2.6029Zm-1.555 -4.2875c1.2036 -2.4614 4.1747 -3.4812 6.6361 -2.2776 2.4615 1.2036 3.4812 4.1747 2.2776 6.6361 -1.2035 2.4615 -4.1746 3.4812 -6.6361 2.2776 -2.4614 -1.2036 -3.48113 -4.1747 -2.2776 -6.6361Zm7.7343 -4.52347c-3.7018 -1.81008 -8.1701 -0.27652 -9.98015 3.42527 -1.81007 3.7018 -0.27652 8.1701 3.42525 9.9802 3.7019 1.8101 8.1701 0.2765 9.9802 -3.4253 1.8101 -3.7018 0.2765 -8.1701 -3.4253 -9.98017Z" clip-rule="evenodd" stroke-width="1"></path></svg>