<svg xmlns="http://www.w3.org/2000/svg" viewBox="0 0 24 24" id="Top-Shirt-Tie--Streamline-Nova.svg" height="24" width="24"><desc>Top Shirt Tie Streamline Icon: https://streamlinehq.com</desc><path d="M23.2894 7.5313L18.5855 4.0033C18.3819 3.8507 18.1343 3.7682 17.8799 3.7681H17.1908L15.1834 1.7607C14.9629 1.5402 14.6638 1.4162 14.352 1.4162H9.648C9.3362 1.4162 9.0371 1.5402 8.8166 1.7607L6.8092 3.7681H6.1201C5.8657 3.7682 5.6181 3.8507 5.4145 4.0033L0.7106 7.5313C0.2111 7.9058 0.0913 8.6054 0.4378 9.1247L2.7897 12.6527C3.1186 13.1461 3.7633 13.3175 4.2938 13.0525L4.9441 12.7268V21.4078C4.9441 22.0573 5.4706 22.5838 6.1201 22.5838H17.8799C18.5294 22.5838 19.0559 22.0573 19.0559 21.4078V12.7268L19.7062 13.0525C20.2367 13.3175 20.8814 13.1461 21.2103 12.6527L23.5622 9.1247C23.9087 8.6054 23.7889 7.9058 23.2894 7.5313ZM14.352 15.5279L12 17.8799L9.648 15.5279L11.6272 7.6124L8.9589 4.9441L10.1349 3.7681H13.8651L15.0411 4.9441L12.3728 7.6124Z" fill="#000000" stroke-width="1"></path></svg>