<svg xmlns="http://www.w3.org/2000/svg" viewBox="0 0 24 24" id="Top-Woman-Tank-Camis--Streamline-Nova.svg" height="24" width="24"><desc>Top Woman Tank Camis Streamline Icon: https://streamlinehq.com</desc><path d="M19.056 16.704C19.1327 15.9187 19.4558 15.1777 19.9792 14.5872C20.8527 13.522 21.3544 12.2006 21.408 10.824C21.2872 8.7238 19.8843 6.9154 17.88 6.2764V0.24H15.528V6.9491C14.6728 8.0044 13.3545 8.5734 12 8.472C10.6462 8.5734 9.3285 8.0059 8.472 6.9526V0.24H6.12V6.2764C4.1157 6.9154 2.7128 8.7238 2.592 10.824C2.6456 12.2006 3.1473 13.522 4.0208 14.5872C4.5442 15.1777 4.8673 15.9187 4.944 16.704C4.8965 17.0502 4.8003 17.3879 4.6582 17.7071C4.0483 19.2597 3.7459 20.916 3.768 22.584C3.768 23.2335 4.2945 23.76 4.944 23.76H19.056C19.7055 23.76 20.232 23.2335 20.232 22.584C20.2541 20.916 19.9517 19.2597 19.3418 17.7071C19.1997 17.3879 19.1035 17.0502 19.056 16.704Z" fill="#000000" stroke-width="1"></path></svg>